<svg width="40" height="42" viewBox="0 0 40 42" fill="none" xmlns="http://www.w3.org/2000/svg">
<path d="M20 0.834564C26.4731 0.834564 31.7206 6.08206 31.7206 12.5552C31.7206 19.0283 26.4731 24.2758 20 24.2758C13.5268 24.2758 8.27932 19.0283 8.27932 12.5552C8.2872 6.08525 13.53 0.842481 19.9992 0.834564H20ZM20 20.7927C24.5494 20.7927 28.2375 17.1047 28.2375 12.5552C28.2375 8.00581 24.5494 4.31771 20 4.31771C15.4505 4.31771 11.7624 8.00577 11.7624 12.5552C11.7674 17.1027 15.4525 20.7878 19.9995 20.7927H19.9999L20 20.7927ZM36.5726 41.1654L35.9282 37.5918C34.4995 29.9886 27.9129 24.3125 20.0002 24.3107H19.9991C12.0934 24.3107 5.51071 29.9749 4.08763 37.4664L4.07168 37.5675L3.42911 41.1307L0 40.5072L0.644348 36.937C2.39212 27.7108 10.3909 20.8276 19.9974 20.8276H20.0002H20C29.6156 20.8301 37.6194 27.7285 39.3348 36.8461L39.3539 36.9683L40 40.5472L36.5726 41.1654Z" fill="black"/>
</svg>
