<svg width="40" height="44" viewBox="0 0 40 44" fill="none" xmlns="http://www.w3.org/2000/svg">
<path d="M0 11.2712H40V17.4908L28.8629 21.2031V43.8659H22.449L20.5054 31.2323V31.1157C20.5054 30.8473 20.2878 30.6297 20.0194 30.6297C19.751 30.6297 19.5336 30.8473 19.5336 31.1157V31.2285L17.555 43.862H11.1371V21.2051L0 17.4928V11.2712ZM37.0845 14.1866H2.9155V15.3917L14.0526 19.104V40.9504H15.0593L16.6143 30.9874C16.6143 29.1089 18.1371 27.5861 20.0156 27.5861C21.8941 27.5861 23.4169 29.1089 23.4169 30.9874L24.9426 40.9485H25.9455V19.102L37.0845 15.3917L37.0845 14.1866ZM20.0194 0.134155C23.8946 0.134155 27.0359 3.27554 27.0359 7.15066C27.0359 11.0258 23.8946 14.1672 20.0194 14.1672C16.1443 14.1672 13.0029 11.0258 13.0029 7.15066C13.0074 3.27733 16.1461 0.138554 20.019 0.134155H20.0194ZM20.0194 11.2517C22.2844 11.2517 24.1205 9.41566 24.1205 7.1507C24.1205 4.88575 22.2844 3.04962 20.0194 3.04962C17.7545 3.04962 15.9184 4.88575 15.9184 7.15075C15.9206 9.41476 17.7554 11.2496 20.0192 11.2517H20.0194Z" fill="black"/>
</svg>
