<svg width="20" height="35" viewBox="0 0 20 35" fill="none" xmlns="http://www.w3.org/2000/svg">
<path d="M20 0V10.0617H17.0908C15.585 10.0617 14.3604 11.2657 14.3271 12.7635V12.7666H18.5776V21.4164H14.3271V34.183H4.26539V21.4164H0V12.7666H4.26543C4.30725 5.73639 9.99217 0.0478027 17.017 6.67269e-05L17.0216 0H20ZM17.0276 7.08929V2.97241C11.6151 3.02863 7.24739 7.42237 7.23343 12.8395V15.739H2.97245V18.4439H7.23784V31.2105H11.3547V18.4439H15.6053V15.739H11.3547V12.8258C11.3547 9.67832 13.8894 7.12287 17.0289 7.08929H17.032H17.0276Z" fill="white"/>
</svg>
