<svg width="1792" height="2274" viewBox="0 0 1792 2274" fill="none" xmlns="http://www.w3.org/2000/svg">
<path d="M680.086 831.636L946.171 864.453L564.772 1198.49L433 1048.04L680.086 831.636Z" fill="#D9D9D9"/>
<path d="M1479.09 435.859L1213 403.041L1594.4 69L1726.17 219.453L1479.09 435.859Z" fill="#D9D9D9"/>
<path d="M1023.68 761.871L803 728.697L1110.93 459L1223.17 587.151L1023.68 761.871Z" fill="#D9D9D9"/>
<path d="M677.68 686.871L457 653.697L764.933 384L877.171 512.151L677.68 686.871Z" fill="#D9D9D9"/>
<path d="M1522.09 707.859L1256 675.041L1637.4 341L1769.17 491.453L1522.09 707.859Z" fill="#D9D9D9"/>
<path d="M1538.09 1045.86L1272 1013.04L1653.4 679L1785.17 829.453L1538.09 1045.86Z" fill="#D9D9D9"/>
<path d="M699.085 387.859L433 355.041L814.399 21L946.171 171.453L699.085 387.859Z" fill="#D9D9D9"/>
<path d="M281.086 732.636L547.171 765.453L165.772 1099.49L34 949.041L281.086 732.636Z" fill="#D9D9D9"/>
<path d="M1153.09 764.636L1419.17 797.453L1037.77 1131.49L906 981.041L1153.09 764.636Z" fill="#D9D9D9"/>
<path d="M247.086 176.636L513.171 209.453L131.772 543.495L2.76566e-05 393.041L247.086 176.636Z" fill="#D9D9D9"/>
<path d="M1138.07 117.653L1397.74 143.107L1016.34 477.148L1016.34 247.153L1138.07 117.653Z" fill="#D9D9D9"/>
<path d="M686.086 1906.64L952.171 1939.45L570.772 2273.49L439 2123.04L686.086 1906.64Z" fill="#D9D9D9"/>
<path d="M1485.09 1510.86L1219 1478.04L1600.4 1144L1732.17 1294.45L1485.09 1510.86Z" fill="#D9D9D9"/>
<path d="M1029.68 1836.87L809 1803.7L1116.93 1534L1229.17 1662.15L1029.68 1836.87Z" fill="#D9D9D9"/>
<path d="M683.68 1761.87L463 1728.7L770.933 1459L883.171 1587.15L683.68 1761.87Z" fill="#D9D9D9"/>
<path d="M1528.09 1782.86L1262 1750.04L1643.4 1416L1775.17 1566.45L1528.09 1782.86Z" fill="#D9D9D9"/>
<path d="M1544.09 2120.86L1278 2088.04L1659.4 1754L1791.17 1904.45L1544.09 2120.86Z" fill="#D9D9D9"/>
<path d="M705.085 1462.86L439 1430.04L820.399 1096L952.171 1246.45L705.085 1462.86Z" fill="#D9D9D9"/>
<path d="M287.086 1807.64L553.171 1840.45L171.772 2174.49L40 2024.04L287.086 1807.64Z" fill="#D9D9D9"/>
<path d="M1159.09 1839.64L1425.17 1872.45L1043.77 2206.49L912 2056.04L1159.09 1839.64Z" fill="#D9D9D9"/>
<path d="M253.086 1251.64L519.171 1284.45L137.772 1618.49L6.00004 1468.04L253.086 1251.64Z" fill="#D9D9D9"/>
<path d="M1144.07 1192.65L1403.74 1218.11L1022.34 1552.15L1022.34 1322.15L1144.07 1192.65Z" fill="#D9D9D9"/>
</svg>
