<svg width="20" height="21" viewBox="0 0 20 21" fill="none" xmlns="http://www.w3.org/2000/svg">
<path d="M4.19131 0.183105H15.8087C18.1225 0.185586 19.9975 2.06059 20 4.37416V15.9918C19.9975 18.3056 18.1225 20.1806 15.8089 20.1831H4.19131C1.87754 20.1806 0.00248047 18.3056 0 15.992V4.37441C0.00248047 2.06063 1.87775 0.185586 4.19131 0.183105ZM15.8087 18.444C17.1624 18.4425 18.2594 17.3455 18.2608 15.992V4.37445C18.2594 3.02074 17.1624 1.92375 15.8088 1.92227H4.19129C2.83758 1.92375 1.74061 3.02074 1.73914 4.3743V15.9918C1.74061 17.3455 2.83758 18.4425 4.19115 18.444H15.8087ZM10 5.16572C12.771 5.16572 15.0174 7.41209 15.0174 10.1831C15.0174 12.9541 12.771 15.2005 10 15.2005C7.22896 15.2005 4.98262 12.9541 4.98262 10.1831C4.98607 7.41348 7.2307 5.16918 10 5.16572ZM10 13.4614C11.8105 13.4614 13.2783 11.9936 13.2783 10.1831C13.2783 8.37258 11.8105 6.90484 10 6.90484C8.18945 6.90484 6.72174 8.37258 6.72174 10.1831C6.72369 11.9929 8.19045 13.4594 10 13.4614ZM16.6348 4.7918C16.6348 5.47855 16.0781 6.03527 15.3913 6.03527C14.7046 6.03527 14.1478 5.47855 14.1478 4.7918C14.1478 4.10504 14.7045 3.54832 15.3913 3.54832C16.078 3.54832 16.6348 4.10504 16.6348 4.7918Z" fill="white"/>
</svg>
